<?xml version="1.0" encoding="UTF-8"?>
<svg width="26px" height="22px" viewBox="0 0 26 22" version="1.1" xmlns="http://www.w3.org/2000/svg" xmlns:xlink="http://www.w3.org/1999/xlink">
    <!-- Generator: Sketch 52.5 (67469) - http://www.bohemiancoding.com/sketch -->
    <title>icons8-twitter</title>
    <desc>Created with Sketch.</desc>
    <g id="Page-1" stroke="none" stroke-width="1" fill="none" fill-rule="evenodd">
        <g id="Group-6" transform="translate(-6.000000, 0.000000)" fill="#857F72">
            <g id="icons8-twitter" transform="translate(5.000000, 0.000000)">
                <path d="M27,2.937 C26.043,3.362 25.015,3.648 23.936,3.777 C25.038,3.117 25.883,2.072 26.281,0.826 C25.251,1.437 24.109,1.881 22.893,2.121 C21.92,1.084 20.534,0.436 19,0.436 C16.054,0.436 13.666,2.825 13.666,5.77 C13.666,6.188 13.714,6.596 13.804,6.985 C9.371,6.763 5.441,4.639 2.809,1.411 C2.351,2.199 2.088,3.115 2.088,4.094 C2.088,5.944 3.029,7.577 4.46,8.533 C3.586,8.505 2.763,8.265 2.044,7.866 C2.044,7.889 2.044,7.91 2.044,7.933 C2.044,10.518 3.882,12.674 6.323,13.163 C5.876,13.285 5.404,13.35 4.917,13.35 C4.574,13.35 4.239,13.316 3.914,13.255 C4.593,15.374 6.563,16.917 8.897,16.96 C7.072,18.391 4.772,19.244 2.272,19.244 C1.842,19.244 1.417,19.219 0.999,19.169 C3.36,20.682 6.163,21.565 9.176,21.565 C18.988,21.565 24.352,13.437 24.352,6.388 C24.352,6.157 24.347,5.927 24.337,5.698 C25.38,4.945 26.285,4.006 27,2.937 Z" id="Path"></path>
            </g>
        </g>
    </g>
</svg>