<?xml version="1.0" encoding="UTF-8"?>
<svg width="24px" height="24px" viewBox="0 0 24 24" version="1.1" xmlns="http://www.w3.org/2000/svg" xmlns:xlink="http://www.w3.org/1999/xlink">
    <!-- Generator: Sketch 52.5 (67469) - http://www.bohemiancoding.com/sketch -->
    <title>icons8-instagram_new</title>
    <desc>Created with Sketch.</desc>
    <g id="Page-1" stroke="none" stroke-width="1" fill="none" fill-rule="evenodd">
        <g id="Group-7" transform="translate(-15.000000, 0.000000)" fill="#857F72">
            <g id="icons8-instagram_new" transform="translate(15.000000, 0.000000)">
                <circle id="Oval" cx="12" cy="12" r="4"></circle>
                <path d="M16.999,0 L6.999,0 C3.14,0 0,3.141 0,7.001 L0,17.001 C0,20.86 3.141,24 7.001,24 L17.001,24 C20.86,24 24,20.859 24,16.999 L24,6.999 C24,3.14 20.859,0 16.999,0 Z M12,18 C8.691,18 6,15.309 6,12 C6,8.691 8.691,6 12,6 C15.309,6 18,8.691 18,12 C18,15.309 15.309,18 12,18 Z M19,6 C18.448,6 18,5.552 18,5 C18,4.448 18.448,4 19,4 C19.552,4 20,4.448 20,5 C20,5.552 19.552,6 19,6 Z" id="Shape" fill-rule="nonzero"></path>
            </g>
        </g>
    </g>
</svg>