<?xml version="1.0" encoding="UTF-8"?>
<svg width="22px" height="22px" viewBox="0 0 22 22" version="1.1" xmlns="http://www.w3.org/2000/svg" xmlns:xlink="http://www.w3.org/1999/xlink">
    <!-- Generator: Sketch 52.5 (67469) - http://www.bohemiancoding.com/sketch -->
    <title>icons8-facebook</title>
    <desc>Created with Sketch.</desc>
    <g id="Page-1" stroke="none" stroke-width="1" fill="none" fill-rule="evenodd">
        <g id="Group-5" transform="translate(-14.000000, 0.000000)" fill="#857F72">
            <g id="icons8-facebook" transform="translate(14.000000, 0.000000)">
                <path d="M20,0 L2,0 C0.895,0 0,0.895 0,2 L0,20 C0,21.105 0.895,22 2,22 L12,22 L12,13 L9,13 L9,10 L12,10 L12,8.389 C12,5.339 13.486,4 16.021,4 C17.235,4 17.877,4.09 18.181,4.131 L18.181,7 L16.452,7 C15.376,7 15,7.568 15,8.718 L15,10 L18.154,10 L17.726,13 L15,13 L15,22 L20,22 C21.105,22 22,21.105 22,20 L22,2 C22,0.895 21.104,0 20,0 Z" id="Path"></path>
            </g>
        </g>
    </g>
</svg>