<?xml version="1.0" encoding="UTF-8"?>
<svg width="24px" height="24px" viewBox="0 0 24 24" version="1.1" xmlns="http://www.w3.org/2000/svg" xmlns:xlink="http://www.w3.org/1999/xlink">
    <!-- Generator: Sketch 52.5 (67469) - http://www.bohemiancoding.com/sketch -->
    <title>icons8-github</title>
    <desc>Created with Sketch.</desc>
    <g id="certificate" stroke="none" stroke-width="1" fill="none" fill-rule="evenodd">
        <g id="Desktop-HD" transform="translate(-1212.000000, -273.000000)" fill="#857F72">
            <g id="Group-3" transform="translate(1206.000000, 273.000000)">
                <g id="icons8-github" transform="translate(6.000000, 0.000000)">
                    <path d="M12,0 C5.373,0 0,5.373 0,12 C0,17.623 3.872,22.328 9.092,23.63 C9.036,23.468 9,23.28 9,23.047 L9,20.996 C8.513,20.996 7.697,20.996 7.492,20.996 C6.671,20.996 5.941,20.643 5.587,19.987 C5.194,19.258 5.126,18.143 4.152,17.461 C3.863,17.234 4.083,16.975 4.416,17.01 C5.031,17.184 5.541,17.606 6.021,18.232 C6.499,18.859 6.724,19.001 7.617,19.001 C8.05,19.001 8.698,18.976 9.308,18.88 C9.636,18.047 10.203,17.28 10.896,16.918 C6.9,16.507 4.993,14.519 4.993,11.82 C4.993,10.658 5.488,9.534 6.329,8.587 C6.053,7.647 5.706,5.73 6.435,5 C8.233,5 9.32,6.166 9.581,6.481 C10.477,6.174 11.461,6 12.495,6 C13.531,6 14.519,6.174 15.417,6.483 C15.675,6.17 16.763,5 18.565,5 C19.297,5.731 18.946,7.656 18.667,8.594 C19.503,9.539 19.995,10.66 19.995,11.82 C19.995,14.517 18.091,16.504 14.101,16.917 C15.199,17.49 16,19.1 16,20.313 L16,23.047 C16,23.151 15.977,23.226 15.965,23.315 C20.641,21.676 24,17.236 24,12 C24,5.373 18.627,0 12,0 Z" id="Path"></path>
                </g>
            </g>
        </g>
    </g>
</svg>