<?xml version="1.0" encoding="UTF-8"?>
<svg width="78px" height="55px" viewBox="0 0 78 55" version="1.1" xmlns="http://www.w3.org/2000/svg" xmlns:xlink="http://www.w3.org/1999/xlink">
    <!-- Generator: Sketch 52.5 (67469) - http://www.bohemiancoding.com/sketch -->
    <title>quote</title>
    <desc>Created with Sketch.</desc>
    <g id="certificate" stroke="none" stroke-width="1" fill="none" fill-rule="evenodd">
        <g id="Desktop-HD" transform="translate(-937.000000, -726.000000)" fill="#E8E6E1">
            <path d="M1001.32184,753.892857 L994.091954,755.071429 C990.704964,755.071429 987.676259,753.925607 985.005747,751.633929 C982.335236,749.34225 981,746.002998 981,741.616071 C981,737.229145 982.432936,733.529777 985.298851,730.517857 C988.164765,727.505937 992.170472,726 997.316092,726 C1002.46171,726 1006.69539,727.964266 1010.01724,731.892857 C1013.3391,735.821448 1015,740.895802 1015,747.116071 C1015,753.336341 1012.62263,759.523779 1007.86782,765.678571 C1003.113,771.833364 996.306558,776.940456 987.448276,781 L986.08046,777.660714 C998.325732,770.851156 1004.44828,763.976225 1004.44828,757.035714 C1004.44828,754.940466 1003.40614,753.892857 1001.32184,753.892857 Z M957.321839,753.892857 L950.091954,755.071429 C946.704964,755.071429 943.676259,753.925607 941.005747,751.633929 C938.335236,749.34225 937,746.002998 937,741.616071 C937,737.229145 938.432936,733.529777 941.298851,730.517857 C944.164765,727.505937 948.170472,726 953.316092,726 C958.461712,726 962.695386,727.964266 966.017241,731.892857 C969.339097,735.821448 971,740.895802 971,747.116071 C971,753.336341 968.622629,759.523779 963.867816,765.678571 C959.113003,771.833364 952.306558,776.940456 943.448276,781 L942.08046,777.660714 C954.325732,770.851156 960.448276,763.976225 960.448276,757.035714 C960.448276,754.940466 959.406141,753.892857 957.321839,753.892857 Z" id="quote"></path>
        </g>
    </g>
</svg>