<?xml version="1.0" encoding="UTF-8"?>
<svg width="88px" height="88px" viewBox="0 0 88 88" version="1.1" xmlns="http://www.w3.org/2000/svg" xmlns:xlink="http://www.w3.org/1999/xlink">
    <!-- Generator: Sketch 52.5 (67469) - http://www.bohemiancoding.com/sketch -->
    <title>tc-circle</title>
    <desc>Created with Sketch.</desc>
    <g id="certificate" stroke="none" stroke-width="1" fill="none" fill-rule="evenodd">
        <g id="Desktop-HD" transform="translate(-263.000000, -184.000000)" fill="#FAF9F7">
            <g id="Group" transform="translate(212.000000, 184.000000)">
                <path d="M95,88 C70.699471,88 51,68.300529 51,44 C51,19.699471 70.699471,0 95,0 C119.300529,0 139,19.699471 139,44 C139,68.300529 119.300529,88 95,88 Z M92.512,34.196 L77,34.196 L77,38.004 L82.32,38.004 L82.32,53.992 L87.136,53.992 L87.136,38.004 L92.512,38.004 L92.512,34.196 Z M103.572,34 C101.649324,34 99.9600073,34.4246624 98.504,35.274 C97.0479927,36.1233376 95.9233373,37.3133257 95.13,38.844 C94.3366627,40.3746743 93.94,42.1199902 93.94,44.08 C93.94,46.0400098 94.3366627,47.7853257 95.13,49.316 C95.9233373,50.8466743 97.0479927,52.0366624 98.504,52.886 C99.9600073,53.7353376 101.649324,54.16 103.572,54.16 C106.092013,54.16 108.177992,53.4926733 109.83,52.158 C111.482008,50.8233267 112.550664,49.0360112 113.036,46.796 L107.968,46.796 C107.594665,47.6920045 107.020671,48.4013307 106.246,48.924 C105.471329,49.4466693 104.552005,49.708 103.488,49.708 C102.087993,49.708 100.958671,49.1993384 100.1,48.182 C99.241329,47.1646616 98.812,45.7973419 98.812,44.08 C98.812,42.3626581 99.241329,40.9906718 100.1,39.964 C100.958671,38.9373282 102.087993,38.424 103.488,38.424 C104.552005,38.424 105.471329,38.6853307 106.246,39.208 C107.020671,39.7306693 107.594665,40.4493288 107.968,41.364 L113.036,41.364 C112.550664,39.105322 111.482008,37.31334 109.83,35.988 C108.177992,34.66266 106.092013,34 103.572,34 Z" id="tc-circle"></path>
            </g>
        </g>
    </g>
</svg>